<svg xmlns="http://www.w3.org/2000/svg" xmlns:xlink="http://www.w3.org/1999/xlink" width="500" zoomAndPan="magnify" viewBox="0 0 375 374.999991" height="500" preserveAspectRatio="xMidYMid meet" version="1.0"><defs><clipPath id="253e493acb"><path d="M 37.5 45 L 337.5 45 L 337.5 330 L 37.5 330 Z M 37.5 45 " clip-rule="nonzero"/></clipPath><clipPath id="d2692fd00a"><path d="M 197 170.65625 L 297.953125 170.65625 L 297.953125 279.40625 L 197 279.40625 Z M 197 170.65625 " clip-rule="nonzero"/></clipPath></defs><g clip-path="url(#253e493acb)"><path fill="#1656ac" d="M 312.449219 45.398438 L 62.539062 45.398438 C 48.738281 45.398438 37.5 56.640625 37.5 70.449219 L 37.5 232.050781 C 37.5 245.859375 48.738281 257.097656 62.539062 257.097656 L 226.140625 257.097656 L 226.140625 325 C 226.140625 326.957031 227.28125 328.738281 229.070312 329.550781 C 230.851562 330.359375 232.941406 330.070312 234.429688 328.769531 L 247.011719 317.789062 L 259.589844 328.769531 C 260.53125 329.578125 261.699219 330 262.878906 330 C 263.578125 330 264.289062 329.847656 264.949219 329.550781 C 266.738281 328.738281 267.878906 326.957031 267.878906 325 L 267.878906 257.097656 L 312.449219 257.097656 C 326.261719 257.097656 337.5 245.859375 337.5 232.050781 L 337.5 70.449219 C 337.5 56.640625 326.261719 45.398438 312.449219 45.398438 Z M 272.71875 229.269531 C 271.820312 231.4375 271.429688 233.757812 271.089844 235.808594 C 270.738281 237.910156 270.339844 240.277344 269.519531 241.109375 C 268.671875 241.949219 266.289062 242.347656 264.191406 242.699219 C 262.148438 243.039062 259.828125 243.417969 257.648438 244.320312 C 255.558594 245.1875 253.789062 246.480469 252.070312 247.71875 C 250.21875 249.058594 248.320312 250.429688 247.011719 250.429688 C 245.691406 250.429688 243.789062 249.050781 241.949219 247.71875 C 240.230469 246.46875 238.449219 245.179688 236.351562 244.308594 C 234.179688 243.410156 231.859375 243.019531 229.808594 242.679688 C 227.710938 242.328125 225.339844 241.9375 224.5 241.097656 C 223.660156 240.257812 223.269531 237.890625 222.921875 235.789062 C 222.578125 233.75 222.199219 231.417969 221.300781 229.25 C 220.429688 227.160156 219.140625 225.378906 217.890625 223.660156 C 216.558594 221.820312 215.179688 219.917969 215.179688 218.597656 C 215.179688 217.289062 216.558594 215.390625 217.890625 213.539062 C 219.128906 211.820312 220.421875 210.050781 221.289062 207.949219 C 222.191406 205.777344 222.578125 203.457031 222.921875 201.410156 C 223.269531 199.308594 223.660156 196.9375 224.5 196.097656 C 225.328125 195.269531 227.710938 194.867188 229.800781 194.519531 C 231.851562 194.179688 234.179688 193.789062 236.339844 192.890625 C 238.441406 192.019531 240.21875 190.730469 241.949219 189.488281 C 243.789062 188.160156 245.679688 186.777344 247 186.777344 C 248.308594 186.777344 250.210938 188.160156 252.050781 189.488281 C 253.769531 190.730469 255.558594 192.019531 257.648438 192.890625 C 259.820312 193.789062 262.140625 194.179688 264.191406 194.519531 C 266.289062 194.867188 268.671875 195.269531 269.488281 196.089844 C 270.328125 196.9375 270.730469 199.308594 271.078125 201.410156 C 271.421875 203.457031 271.808594 205.789062 272.710938 207.949219 C 273.578125 210.039062 274.871094 211.828125 276.109375 213.550781 C 277.441406 215.390625 278.820312 217.289062 278.820312 218.597656 C 278.820312 219.917969 277.441406 221.808594 276.109375 223.648438 C 274.878906 225.390625 273.589844 227.167969 272.71875 229.269531 Z M 250.289062 307.390625 C 248.410156 305.75 245.601562 305.75 243.730469 307.390625 L 236.140625 314 L 236.140625 255.867188 C 238.96875 257.910156 242.480469 260.4375 247.011719 260.4375 C 251.53125 260.4375 255.050781 257.910156 257.878906 255.867188 L 257.878906 314 Z M 327.5 232.050781 C 327.5 240.347656 320.75 247.097656 312.449219 247.097656 L 277.421875 247.097656 C 279.738281 244.140625 280.460938 240.488281 280.960938 237.457031 C 281.230469 235.789062 281.5 234.21875 281.96875 233.089844 C 282.390625 232.070312 283.289062 230.828125 284.238281 229.519531 C 286.289062 226.6875 288.839844 223.160156 288.839844 218.609375 C 288.839844 214.058594 286.289062 210.527344 284.238281 207.699219 C 283.289062 206.378906 282.390625 205.148438 281.96875 204.140625 C 281.5 203.019531 281.238281 201.4375 280.960938 199.769531 C 280.390625 196.367188 279.679688 192.140625 276.578125 189.039062 C 273.480469 185.9375 269.25 185.230469 265.851562 184.660156 C 264.179688 184.390625 262.609375 184.117188 261.480469 183.648438 C 260.460938 183.230469 259.230469 182.328125 257.921875 181.378906 C 255.089844 179.328125 251.558594 176.777344 247.011719 176.777344 C 242.460938 176.777344 238.929688 179.328125 236.101562 181.378906 C 234.78125 182.328125 233.539062 183.230469 232.53125 183.648438 C 231.410156 184.117188 229.828125 184.378906 228.160156 184.660156 C 224.761719 185.230469 220.53125 185.9375 217.449219 189.027344 C 214.328125 192.140625 213.628906 196.367188 213.070312 199.777344 C 212.789062 201.4375 212.519531 203.019531 212.058594 204.128906 C 211.640625 205.148438 210.738281 206.378906 209.789062 207.679688 C 207.738281 210.519531 205.179688 214.058594 205.179688 218.609375 C 205.179688 223.167969 207.738281 226.699219 209.789062 229.539062 C 210.738281 230.847656 211.640625 232.089844 212.058594 233.078125 C 212.519531 234.199219 212.78125 235.777344 213.058594 237.4375 C 213.570312 240.480469 214.28125 244.128906 216.609375 247.097656 L 62.539062 247.097656 C 54.25 247.097656 47.5 240.347656 47.5 232.050781 L 47.5 70.449219 C 47.5 62.148438 54.25 55.398438 62.539062 55.398438 L 312.449219 55.398438 C 320.75 55.398438 327.5 62.148438 327.5 70.449219 Z M 327.5 232.050781 " fill-opacity="1" fill-rule="nonzero"/></g><path fill="#1656ac" d="M 135.539062 83.527344 L 239.46875 83.527344 C 242.230469 83.527344 244.46875 81.289062 244.46875 78.527344 C 244.46875 75.769531 242.230469 73.527344 239.46875 73.527344 L 135.539062 73.527344 C 132.78125 73.527344 130.539062 75.769531 130.539062 78.527344 C 130.539062 81.289062 132.769531 83.527344 135.539062 83.527344 Z M 135.539062 83.527344 " fill-opacity="1" fill-rule="nonzero"/><path fill="#1656ac" d="M 150.179688 201.558594 L 73.210938 201.558594 C 70.449219 201.558594 68.210938 203.800781 68.210938 206.558594 C 68.210938 209.320312 70.449219 211.558594 73.210938 211.558594 L 150.179688 211.558594 C 152.941406 211.558594 155.179688 209.320312 155.179688 206.558594 C 155.179688 203.800781 152.941406 201.558594 150.179688 201.558594 Z M 150.179688 201.558594 " fill-opacity="1" fill-rule="nonzero"/><path fill="#1656ac" d="M 301.789062 101.390625 L 249.429688 101.390625 C 246.671875 101.390625 244.429688 103.628906 244.429688 106.390625 C 244.429688 109.148438 246.671875 111.390625 249.429688 111.390625 L 301.789062 111.390625 C 304.550781 111.390625 306.789062 109.148438 306.789062 106.390625 C 306.789062 103.628906 304.550781 101.390625 301.789062 101.390625 Z M 301.789062 101.390625 " fill-opacity="1" fill-rule="nonzero"/><path fill="#1656ac" d="M 73.210938 111.390625 L 230.128906 111.390625 C 232.890625 111.390625 235.128906 109.148438 235.128906 106.390625 C 235.128906 103.628906 232.890625 101.390625 230.128906 101.390625 L 73.210938 101.390625 C 70.449219 101.390625 68.210938 103.628906 68.210938 106.390625 C 68.210938 109.148438 70.449219 111.390625 73.210938 111.390625 Z M 73.210938 111.390625 " fill-opacity="1" fill-rule="nonzero"/><path fill="#1656ac" d="M 301.789062 118.527344 L 73.210938 118.527344 C 70.449219 118.527344 68.210938 120.769531 68.210938 123.527344 C 68.210938 126.289062 70.449219 128.527344 73.210938 128.527344 L 301.78125 128.527344 C 304.539062 128.527344 306.78125 126.289062 306.78125 123.527344 C 306.78125 120.769531 304.550781 118.527344 301.789062 118.527344 Z M 301.789062 118.527344 " fill-opacity="1" fill-rule="nonzero"/><path fill="#1656ac" d="M 301.789062 135.667969 L 73.210938 135.667969 C 70.449219 135.667969 68.210938 137.910156 68.210938 140.667969 C 68.210938 143.429688 70.449219 145.667969 73.210938 145.667969 L 301.78125 145.667969 C 304.539062 145.667969 306.78125 143.429688 306.78125 140.667969 C 306.78125 137.910156 304.550781 135.667969 301.789062 135.667969 Z M 301.789062 135.667969 " fill-opacity="1" fill-rule="nonzero"/><path fill="#1656ac" d="M 301.789062 152.808594 L 73.210938 152.808594 C 70.449219 152.808594 68.210938 155.050781 68.210938 157.808594 C 68.210938 160.570312 70.449219 162.808594 73.210938 162.808594 L 301.78125 162.808594 C 304.539062 162.808594 306.78125 160.570312 306.78125 157.808594 C 306.78125 155.050781 304.550781 152.808594 301.789062 152.808594 Z M 301.789062 152.808594 " fill-opacity="1" fill-rule="nonzero"/><path fill="#1656ac" d="M 247.011719 201.558594 C 237.609375 201.558594 229.949219 209.207031 229.949219 218.609375 C 229.949219 228.007812 237.609375 235.667969 247.011719 235.667969 C 256.410156 235.667969 264.058594 228.007812 264.058594 218.609375 C 264.058594 209.207031 256.421875 201.558594 247.011719 201.558594 Z M 247.011719 225.667969 C 243.109375 225.667969 239.949219 222.507812 239.949219 218.609375 C 239.949219 214.71875 243.109375 211.558594 247.011719 211.558594 C 250.898438 211.558594 254.058594 214.71875 254.058594 218.609375 C 254.058594 222.507812 250.898438 225.667969 247.011719 225.667969 Z M 247.011719 225.667969 " fill-opacity="1" fill-rule="nonzero"/><path fill="#1656ac" d="M 295.96875 182.152344 C 295.53125 181.675781 294.589844 181.765625 294.589844 181.765625 L 271.578125 181.765625 L 271.214844 181.757812 C 254.128906 181.359375 257.503906 172.398438 248.367188 172.386719 C 238.261719 172.367188 239.65625 181.992188 230.113281 182.21875 L 223.503906 182.519531 C 222.613281 182.5625 221.703125 182.5625 220.761719 182.519531 L 201.835938 182.519531 C 201.835938 182.519531 200.042969 182.316406 199.253906 183.242188 C 198.5 184.128906 198.738281 185.050781 198.738281 185.898438 L 198.738281 238.167969 L 198.765625 238.167969 C 198.746094 238.5625 198.738281 238.96875 198.738281 239.367188 C 198.738281 253.480469 238.214844 277.886719 247.585938 277.886719 C 256.316406 277.886719 296.425781 253.480469 296.425781 239.367188 C 296.425781 238.96875 296.417969 238.5625 296.398438 238.167969 L 296.425781 238.167969 L 296.425781 183.953125 C 296.425781 183.953125 296.46875 182.699219 295.96875 182.152344 " fill-opacity="1" fill-rule="nonzero"/><g clip-path="url(#d2692fd00a)"><path stroke-linecap="round" transform="matrix(0.0465246, 0, 0, -0.0465246, 148.6548, 324.048495)" fill="none" stroke-linejoin="round" d="M 3166.36786 3049.917611 C 3156.964229 3060.160851 3136.729632 3058.229749 3136.729632 3058.229749 L 2642.115467 3058.229749 L 2634.307095 3058.397671 C 2267.061745 3066.961691 2339.604036 3259.484231 2143.219291 3259.904036 C 1926.012222 3260.23988 1955.986293 3053.360011 1750.869606 3048.490274 L 1608.807619 3042.025278 C 1589.664514 3041.101708 1570.101604 3041.101708 1549.867007 3042.025278 L 1143.076032 3042.025278 C 1143.076032 3042.025278 1104.53794 3046.39125 1087.577821 3026.492496 C 1071.373351 3007.433352 1076.494971 2987.61856 1076.494971 2969.399026 L 1076.494971 1845.91708 L 1077.082698 1845.91708 C 1076.662893 1837.43702 1076.494971 1828.705078 1076.494971 1820.141057 C 1076.494971 1516.790017 1925.00469 992.201779 2126.427094 992.201779 C 2314.079896 992.201779 3176.191295 1516.790017 3176.191295 1820.141057 C 3176.191295 1828.705078 3176.023373 1837.43702 3175.603568 1845.91708 L 3176.191295 1845.91708 L 3176.191295 3011.211597 C 3176.191295 3011.211597 3177.114866 3038.163073 3166.36786 3049.917611 Z M 3166.36786 3049.917611 " stroke="#000000" stroke-width="73.016998" stroke-opacity="1" stroke-miterlimit="10"/></g><path fill="#1656ac" d="M 285.53125 191.425781 C 285.1875 191.046875 284.445312 191.125 284.445312 191.125 L 266.398438 191.125 L 266.109375 191.113281 C 252.714844 190.800781 255.359375 183.777344 248.195312 183.769531 C 240.269531 183.753906 241.363281 191.300781 233.878906 191.476562 L 228.695312 191.710938 C 227.996094 191.746094 227.28125 191.746094 226.546875 191.710938 L 211.699219 191.710938 C 211.699219 191.710938 210.296875 191.550781 209.675781 192.28125 C 209.085938 192.980469 209.273438 193.699219 209.273438 194.359375 L 209.273438 235.359375 L 209.296875 235.359375 C 209.28125 235.671875 209.273438 235.980469 209.273438 236.296875 C 209.273438 247.367188 240.234375 266.511719 247.578125 266.511719 C 254.433594 266.511719 285.886719 247.367188 285.886719 236.296875 C 285.886719 235.980469 285.878906 235.671875 285.863281 235.359375 L 285.886719 235.359375 L 285.886719 192.839844 C 285.886719 192.839844 285.921875 191.855469 285.53125 191.425781 " fill-opacity="1" fill-rule="nonzero"/><path stroke-linecap="round" transform="matrix(0.0465246, 0, 0, -0.0465246, 148.6548, 324.048495)" fill="none" stroke-linejoin="round" d="M 2942.024107 2850.594232 C 2934.63554 2858.738447 2918.682953 2857.059227 2918.682953 2857.059227 L 2530.7832 2857.059227 L 2524.570087 2857.31111 C 2236.667868 2864.027989 2293.509455 3014.989841 2139.525008 3015.241724 C 1969.168168 3015.493607 1992.677244 2853.280983 1831.807996 2849.502739 L 1720.391768 2844.46508 C 1705.362752 2843.709431 1689.997892 2843.709431 1674.213226 2844.46508 L 1355.077521 2844.46508 C 1355.077521 2844.46508 1324.935527 2847.90748 1311.58573 2832.206776 C 1298.907621 2817.177759 1302.937749 2801.728938 1302.937749 2787.539532 L 1302.937749 1906.285028 L 1303.441514 1906.285028 C 1303.105671 1899.568149 1302.937749 1892.935231 1302.937749 1886.134392 C 1302.937749 1648.188959 1968.412519 1236.696169 2126.259172 1236.696169 C 2273.610701 1236.696169 2949.664556 1648.188959 2949.664556 1886.134392 C 2949.664556 1892.935231 2949.496634 1899.568149 2949.16079 1906.285028 L 2949.664556 1906.285028 L 2949.664556 2820.200355 C 2949.664556 2820.200355 2950.420205 2841.358523 2942.024107 2850.594232 Z M 2942.024107 2850.594232 " stroke="#ffffff" stroke-width="73.016998" stroke-opacity="1" stroke-miterlimit="10"/><path fill="#ffffff" d="M 262.691406 198.828125 C 256.332031 205.257812 251.101562 212.636719 247.085938 220.730469 C 244.898438 225.132812 243.042969 229.679688 241.292969 234.269531 C 239.5625 231.554688 237.761719 228.882812 235.976562 226.207031 C 234.289062 223.679688 231.082031 222.597656 228.335938 224.207031 C 225.828125 225.671875 224.640625 229.308594 226.332031 231.847656 C 230.332031 237.832031 234.441406 243.785156 237.515625 250.316406 C 238.332031 252.050781 240.503906 253.078125 242.335938 253.078125 C 244.984375 253.078125 246.84375 251.34375 247.71875 248.984375 C 253.417969 233.605469 258.761719 218.671875 270.589844 206.722656 C 275.65625 201.605469 267.761719 193.707031 262.691406 198.828125 " fill-opacity="1" fill-rule="nonzero"/></svg>